<svg data-v-423bf9ae="" xmlns="http://www.w3.org/2000/svg" viewBox="0 0 390 90" class="iconLeft"><!----><!----><!----><g data-v-423bf9ae="" id="c552b3d7-300c-4033-a661-dc6edc9c1a98" fill="white" transform="matrix(4.535147222295708,0,0,4.535147222295708,127.7304921687014,0.07936724216072832)"><path d="M3.46 7.57L5.04 7.57L5.04 6.17L3.46 6.17L3.46 4.30L1.26 4.30L1.26 6.17L0.13 6.17L0.13 7.57L1.26 7.57L1.26 11.00C1.26 11.42 1.26 11.76 1.29 12.14C1.37 13.23 1.90 13.76 3.54 13.76C4.02 13.76 4.45 13.72 4.90 13.65L4.90 12.25C3.78 12.32 3.53 12.15 3.47 11.41C3.46 11.21 3.46 10.96 3.46 10.71ZM13.02 9.72C13.02 7.73 11.79 5.92 9.41 5.92C7.04 5.92 5.54 7.63 5.54 9.87C5.54 12.50 7.18 13.78 9.27 13.78C11.09 13.78 12.49 12.87 12.89 11.14L10.72 11.14C10.60 11.84 10.08 12.26 9.31 12.26C8.48 12.26 7.87 11.84 7.74 10.42L12.98 10.42C13.01 10.15 13.02 9.91 13.02 9.72ZM9.31 7.43C10.12 7.43 10.61 7.98 10.74 9.03L7.80 9.03C7.98 7.92 8.53 7.43 9.31 7.43ZM18.35 5.92C17.92 5.92 17.37 6.12 17.00 6.51L16.44 7.55L16.44 6.12L14.24 6.12L14.24 13.58L16.44 13.58L16.44 10.46C16.44 8.34 17.18 7.64 18.91 7.76L18.91 5.98C18.75 5.95 18.59 5.92 18.35 5.92ZM23.24 5.92C20.76 5.92 19.31 7.52 19.31 9.84C19.31 12.17 20.76 13.78 23.24 13.78C25.70 13.78 27.17 12.17 27.17 9.84C27.17 7.52 25.70 5.92 23.24 5.92ZM23.24 12.26C22.19 12.26 21.56 11.40 21.56 9.84C21.56 8.29 22.19 7.43 23.24 7.43C24.28 7.43 24.91 8.29 24.91 9.84C24.91 11.40 24.28 12.26 23.24 12.26ZM33.03 5.92C32.27 5.92 31.53 6.09 31.11 6.41L30.55 7.24L30.55 3.29L28.35 3.29L28.35 13.58L30.55 13.58L30.55 12.60L31.04 13.38C31.42 13.62 32.16 13.78 32.77 13.78C34.69 13.78 36.33 12.38 36.33 9.69C36.33 7.49 35.08 5.92 33.03 5.92ZM32.26 12.26C31.42 12.26 30.55 11.70 30.55 10.09L30.55 9.76C30.55 8.05 31.32 7.43 32.33 7.43C33.36 7.43 34.08 8.36 34.08 9.83C34.08 11.45 33.32 12.26 32.26 12.26ZM44.66 6.12L42.27 6.12L40.57 11.89L38.86 6.12L36.41 6.12L39.48 13.92L39.38 14.15C39.10 14.80 38.68 15.02 38.05 15.02C37.83 15.02 37.63 15.02 37.44 14.99L37.44 16.46C37.74 16.51 38.01 16.52 38.39 16.52C40.01 16.52 40.82 15.90 41.68 13.73ZM48.05 7.57L49.63 7.57L49.63 6.17L48.05 6.17L48.05 4.30L45.85 4.30L45.85 6.17L44.72 6.17L44.72 7.57L45.85 7.57L45.85 11.00C45.85 11.42 45.85 11.76 45.88 12.14C45.96 13.23 46.49 13.76 48.13 13.76C48.61 13.76 49.04 13.72 49.49 13.65L49.49 12.25C48.37 12.32 48.12 12.15 48.06 11.41C48.05 11.21 48.05 10.96 48.05 10.71ZM57.61 9.72C57.61 7.73 56.38 5.92 54.00 5.92C51.63 5.92 50.13 7.63 50.13 9.87C50.13 12.50 51.77 13.78 53.86 13.78C55.68 13.78 57.08 12.87 57.48 11.14L55.31 11.14C55.19 11.84 54.67 12.26 53.90 12.26C53.07 12.26 52.46 11.84 52.33 10.42L57.57 10.42C57.60 10.15 57.61 9.91 57.61 9.72ZM53.90 7.43C54.71 7.43 55.20 7.98 55.33 9.03L52.39 9.03C52.57 7.92 53.12 7.43 53.90 7.43Z"></path></g><!----><g data-v-423bf9ae="" id="526b60ae-ef14-4f52-a40e-17a8d73e2106" transform="matrix(1.5241321111400596,0,0,1.5241321111400596,0.7959385625548023,-7.850230276422465)" stroke="none" fill="white"><path d="M60.812 17.227c-.452-5.887-4.884-10.646-10.62-11.602a12.853 12.853 0 0 0-2.11-.187c-.729 0-1.442.067-2.138.187-1.691.29-3.268.911-4.666 1.793a12.777 12.777 0 0 0-3.51 3.26c-.028.035-.061.067-.085.104C37.616 10.875.084 64.486.084 64.486l30.384.002c16.752.002 30.336-13.553 30.388-30.293l.002-.092v-6.768l10.296-5.044-10.342-5.064zm-11.251 1.929a1.885 1.885 0 1 1 0-3.77 1.885 1.885 0 0 1 0 3.77z"></path></g><!----></svg>